<svg xmlns="http://www.w3.org/2000/svg" version="1.1" xmlns:xlink="http://www.w3.org/1999/xlink" xmlns:svgjs="http://svgjs.dev/svgjs" width="128" height="128" viewBox="0 0 128 128"><g transform="matrix(0.8046875,0,0,0.8046875,12.333870967741937,12.333870967741937)"><svg viewBox="0 0 155 155" data-background-color="#ffffff" preserveAspectRatio="xMidYMid meet" height="128" width="128" xmlns="http://www.w3.org/2000/svg" xmlns:xlink="http://www.w3.org/1999/xlink"><g id="tight-bounds" transform="matrix(1,0,0,1,0.25,0.25)"><svg viewBox="0 0 154.5 154.5" height="154.5" width="154.5"><g><svg></svg></g><g><svg viewBox="0 0 154.5 154.5" height="154.5" width="154.5"><g transform="matrix(1,0,0,1,46.5928259416768,43.83165)"><svg viewBox="0 0 61.3143481166464 66.8367" height="66.8367" width="61.3143481166464"><g><svg viewBox="0 0 61.3143481166464 66.8367" height="66.8367" width="61.3143481166464"><g><svg viewBox="0 0 61.3143481166464 66.8367" height="66.8367" width="61.3143481166464"><g id="textblocktransform"><svg viewBox="0 0 61.3143481166464 66.8367" height="66.8367" width="61.3143481166464" id="textblock"><g><svg viewBox="0 0 61.3143481166464 66.8367" height="66.8367" width="61.3143481166464"><g transform="matrix(1,0,0,1,0,0)"><svg width="61.3143481166464" viewBox="3.6 -37.1 37.75 41.150000000000006" height="66.8367" data-palette-color="#729343"><path d="M24.55-2.9L24.55-2.9Q24.55-5 25.25-8.3 25.95-11.6 27.1-15.35L27.1-15.35Q23.8-15.1 20.48-14.7 17.15-14.3 14.7-14.25L14.7-14.25Q12.45-9 11.13-4.58 9.8-0.15 9.05 4.05L9.05 4.05Q7.15 3.6 5.9 2.48 4.65 1.35 3.6-0.35L3.6-0.35Q4-1.15 4.53-2.4 5.05-3.65 5.78-5.43 6.5-7.2 7.43-9.58 8.35-11.95 9.55-15.1L9.55-15.1Q7.9-15.8 7.35-17.05L7.35-17.05Q7.6-17.25 8.47-17.48 9.35-17.7 10.65-17.95L10.65-17.95 11.3-19.55Q12.35-22.25 13.03-24.1 13.7-25.95 14.18-27.73 14.65-29.5 15.08-31.65 15.5-33.8 16.1-37.1L16.1-37.1Q18.2-36.7 19.93-35.25 21.65-33.8 22.9-31.75L22.9-31.75Q22.45-31.15 21.8-29.95 21.15-28.75 20.38-27.08 19.6-25.4 18.7-23.33 17.8-21.25 16.75-18.95L16.75-18.95Q19.85-19.35 23.03-19.7 26.2-20.05 28.65-20.2L28.65-20.2Q29.55-22.8 30.53-25.28 31.5-27.75 32.45-29.8 33.4-31.85 34.27-33.4 35.15-34.95 35.85-35.7L35.85-35.7Q36.35-35.65 37.18-35.33 38-35 38.85-34.55 39.7-34.1 40.4-33.58 41.1-33.05 41.35-32.6L41.35-32.6Q40.45-31.75 39.55-30.4 38.65-29.05 37.77-27.3 36.9-25.55 36.05-23.5 35.2-21.45 34.45-19.25L34.45-19.25Q35.45-18.35 35.45-17L35.45-17Q35.45-16.05 35.05-15.25L35.05-15.25Q34.6-15.35 34.15-15.38 33.7-15.4 33.2-15.45L33.2-15.45Q32.35-12.75 31.65-10.1 30.95-7.45 30.48-5.05 30-2.65 29.73-0.65 29.45 1.35 29.45 2.7L29.45 2.7Q29.45 3.2 29.48 3.5 29.5 3.8 29.55 4L29.55 4Q28.45 3.95 27.95 3.63 27.45 3.3 27.2 2.93 26.95 2.55 26.75 2.18 26.55 1.8 26.1 1.6L26.1 1.6Q25.75 1.45 25.45 0.9 25.15 0.35 24.95-0.35 24.75-1.05 24.65-1.75 24.55-2.45 24.55-2.9Z" opacity="1" transform="matrix(1,0,0,1,0,0)" fill="#729343" class="undefined-text-0" data-fill-palette-color="primary" id="text-0"></path></svg></g></svg></g></svg></g></svg></g></svg></g></svg></g><g><path d="M0 154.5v-154.5h154.5v154.5zM148.473 148.473v-142.446h-142.446v142.446z" fill="#729343" fill-rule="nonzero" stroke="none" stroke-width="1" stroke-linecap="butt" stroke-linejoin="miter" stroke-miterlimit="10" stroke-dasharray="" stroke-dashoffset="0" font-family="none" font-weight="none" font-size="none" text-anchor="none" style="mix-blend-mode: normal" data-fill-palette-color="tertiary"></path></g></svg></g><defs></defs></svg><rect width="154.5" height="154.5" fill="none" stroke="none" visibility="hidden"></rect></g></svg></g></svg>